<?xml version="1.0" encoding="UTF-8"?>
<!DOCTYPE svg PUBLIC "-//W3C//DTD SVG 1.1//EN" "http://www.w3.org/Graphics/SVG/1.1/DTD/svg11.dtd">
<svg xmlns="http://www.w3.org/2000/svg" version="1.1" width="791px" height="133px" style="shape-rendering:geometricPrecision; text-rendering:geometricPrecision; image-rendering:optimizeQuality; fill-rule:evenodd; clip-rule:evenodd" xmlns:xlink="http://www.w3.org/1999/xlink">
<g><path style="opacity:1" fill="#fcfdfc" d="M -0.5,-0.5 C 263.167,-0.5 526.833,-0.5 790.5,-0.5C 790.5,43.8333 790.5,88.1667 790.5,132.5C 561.167,132.5 331.833,132.5 102.5,132.5C 99.2974,127.796 96.2974,122.963 93.5,118C 95.5095,118.594 97.5095,118.427 99.5,117.5C 100.251,118.376 100.751,119.376 101,120.5C 101.561,118.275 102.561,116.275 104,114.5C 104.726,118.751 106.059,122.751 108,126.5C 108.268,121.67 107.435,117.004 105.5,112.5C 106.498,109.972 107.331,109.972 108,112.5C 108.368,111.09 109.201,110.09 110.5,109.5C 114.302,112.804 117.135,116.804 119,121.5C 119.654,122.696 120.154,122.696 120.5,121.5C 117.176,114.34 112.843,107.84 107.5,102C 108.849,100.365 108.682,98.8646 107,97.5C 104.457,99.4112 101.957,101.411 99.5,103.5C 98.707,102.645 99.0403,101.811 100.5,101C 98.0937,100.221 96.427,101.054 95.5,103.5C 93.6745,102.429 92.5079,103.096 92,105.5C 91.0192,102.311 89.6859,101.978 88,104.5C 86.2663,103.751 84.433,103.251 82.5,103C 81.7809,100.444 80.1142,99.2771 77.5,99.5C 77.1616,102.325 78.1616,104.492 80.5,106C 79.5509,106.617 78.7175,106.451 78,105.5C 77.8726,106.777 78.3726,107.943 79.5,109C 77.1008,112.022 78.1008,113.688 82.5,114C 84.607,115.264 85.607,117.097 85.5,119.5C 86.5,119.5 87.5,119.5 88.5,119.5C 88.6567,120.873 88.49,122.207 88,123.5C 87.1107,122.112 86.6107,122.278 86.5,124C 86.9504,125.285 87.6171,126.452 88.5,127.5C 89.1667,128.833 89.8333,128.833 90.5,127.5C 89.3192,125.802 89.3192,124.135 90.5,122.5C 95.0217,124.355 97.6884,127.688 98.5,132.5C 65.5,132.5 32.5,132.5 -0.5,132.5C -0.5,88.1667 -0.5,43.8333 -0.5,-0.5 Z"/></g>
<g><path style="opacity:1" fill="#e43e72" d="M 44.5,31.5 C 48.226,31.1774 51.8927,31.5108 55.5,32.5C 55.7093,33.086 56.0426,33.586 56.5,34C 53.3054,34.1805 50.3054,34.6805 47.5,35.5C 35.5259,37.4798 27.5259,44.1464 23.5,55.5C 22.2329,58.0613 22.2329,60.728 23.5,63.5C 22.8494,77.9016 29.5161,87.5683 43.5,92.5C 43.4701,93.4972 43.9701,94.1639 45,94.5C 47.464,95.1608 49.964,95.6608 52.5,96C 49.5184,96.498 46.5184,96.6646 43.5,96.5C 39.8945,96.2014 36.5612,95.0347 33.5,93C 11.9223,73.2736 12.2556,53.9403 34.5,35C 37.7478,33.5405 41.0812,32.3738 44.5,31.5 Z"/></g>
<g><path style="opacity:1" fill="#fbf9fa" d="M 47.5,35.5 C 54.4776,34.9068 61.1442,36.0735 67.5,39C 86.5403,50.52 105.874,61.52 125.5,72C 129.46,73.0253 133.46,73.8586 137.5,74.5C 142.547,73.624 147.547,72.624 152.5,71.5C 152.336,74.8174 151.336,77.8174 149.5,80.5C 147.167,83.1667 144.833,85.8333 142.5,88.5C 130.964,94.8851 119.297,95.0518 107.5,89C 89.0678,78.2325 70.4012,67.8992 51.5,58C 42.4012,53.2631 33.4012,53.4298 24.5,58.5C 23.6143,57.675 23.281,56.675 23.5,55.5C 27.5259,44.1464 35.5259,37.4798 47.5,35.5 Z"/></g>
<g><path style="opacity:1" fill="#9cdcc4" d="M 243.5,42.5 C 256.323,41.5045 269.323,41.1712 282.5,41.5C 282.806,44.3854 282.473,47.0521 281.5,49.5C 281.5,47.1667 281.5,44.8333 281.5,42.5C 280.5,42.5 279.5,42.5 278.5,42.5C 266.833,42.5 255.167,42.5 243.5,42.5 Z"/></g>
<g><path style="opacity:1" fill="#92dfc1" d="M 663.5,42.5 C 649.167,42.5 634.833,42.5 620.5,42.5C 620.483,44.5648 620.15,46.5648 619.5,48.5C 618.189,46.4402 618.189,44.2735 619.5,42C 634.339,41.1724 649.006,41.3391 663.5,42.5 Z"/></g>
<g><path style="opacity:1" fill="#36ca93" d="M 243.5,42.5 C 255.167,42.5 266.833,42.5 278.5,42.5C 269.676,43.3297 260.676,43.8297 251.5,44C 249.479,44.513 247.979,45.6797 247,47.5C 243.846,44.6569 243.013,45.1569 244.5,49C 244.333,49.8333 244.167,50.6667 244,51.5C 243.667,51.1667 243.333,50.8333 243,50.5C 242.5,60.4944 242.334,70.4944 242.5,80.5C 241.834,74.3424 241.5,68.009 241.5,61.5C 241.504,54.7963 242.17,48.463 243.5,42.5 Z"/></g>
<g><path style="opacity:1" fill="#51d2a5" d="M 436.5,42.5 C 428.169,42.9582 419.835,43.4582 411.5,44C 410.167,45 410.167,46 411.5,47C 408.833,47.6667 406.167,47.6667 403.5,47C 405.167,46.6667 406.833,46.3333 408.5,46C 406.444,45.6892 404.444,45.1892 402.5,44.5C 400.063,46.2703 398.063,48.2703 396.5,50.5C 397.722,45.7779 400.722,42.9446 405.5,42C 416.008,41.1748 426.342,41.3415 436.5,42.5 Z"/></g>
<g><path style="opacity:1" fill="#f7f9f5" d="M 295.5,41.5 C 292.753,41.1866 290.086,41.52 287.5,42.5C 293.856,49.8529 300.189,57.1862 306.5,64.5C 301.504,69.6638 296.671,74.9972 292,80.5C 290.121,82.5268 288.954,84.8602 288.5,87.5C 291.167,87.5 293.833,87.5 296.5,87.5C 291.689,88.056 286.855,89.056 282,90.5C 280.278,90.3893 280.112,89.8893 281.5,89C 278.547,88.1075 275.881,88.6075 273.5,90.5C 273.167,89.8333 272.833,89.1667 272.5,88.5C 271.833,89.1667 271.167,89.8333 270.5,90.5C 270.167,89.8333 269.833,89.1667 269.5,88.5C 268.392,91.5032 266.725,92.0032 264.5,90C 265.5,89.6667 266.5,89.3333 267.5,89C 263.653,88.3666 259.986,87.5333 256.5,86.5C 264.167,86.5 271.833,86.5 279.5,86.5C 280.75,86.4226 281.583,85.756 282,84.5C 282.494,82.8659 282.66,81.1992 282.5,79.5C 277.5,79.5 272.5,79.5 267.5,79.5C 261.242,79.8097 255.076,79.4764 249,78.5C 248.5,69.1726 248.334,59.8393 248.5,50.5C 259.679,50.8279 270.679,50.4946 281.5,49.5C 282.473,47.0521 282.806,44.3854 282.5,41.5C 284.726,40.0405 286.893,39.0405 289,38.5C 291.63,38.8592 293.797,39.8592 295.5,41.5 Z"/></g>
<g><path style="opacity:1" fill="#43cf8b" d="M 663.5,42.5 C 663.768,45.1194 663.435,47.6194 662.5,50C 656.843,50.4994 651.176,50.6661 645.5,50.5C 645.828,62.6783 645.495,74.6783 644.5,86.5C 644.5,74.1667 644.5,61.8333 644.5,49.5C 642.833,49.5 641.167,49.5 639.5,49.5C 639.827,59.6806 639.494,69.6806 638.5,79.5C 638.5,69.8333 638.5,60.1667 638.5,50.5C 631.745,51.1229 625.412,50.4563 619.5,48.5C 620.15,46.5648 620.483,44.5648 620.5,42.5C 634.833,42.5 649.167,42.5 663.5,42.5 Z"/></g>
<g><path style="opacity:1" fill="#32d282" d="M 755.5,42.5 C 758.5,42.5 761.5,42.5 764.5,42.5C 764.802,45.0593 764.468,47.3926 763.5,49.5C 752.813,49.832 742.146,49.4987 731.5,48.5C 733.991,47.4593 733.991,46.6259 731.5,46C 731.957,45.586 732.291,45.086 732.5,44.5C 740.323,43.8333 747.99,43.1666 755.5,42.5 Z"/></g>
<g><path style="opacity:1" fill="#3bce8c" d="M 436.5,42.5 C 436.5,45.1667 436.5,47.8333 436.5,50.5C 425.5,50.5 414.5,50.5 403.5,50.5C 403.253,53.9387 403.586,57.272 404.5,60.5C 403.516,63.0704 402.349,63.0704 401,60.5C 401.094,57.4992 399.761,55.4992 397,54.5C 396.51,53.2068 396.343,51.8734 396.5,50.5C 398.063,48.2703 400.063,46.2703 402.5,44.5C 404.444,45.1892 406.444,45.6892 408.5,46C 406.833,46.3333 405.167,46.6667 403.5,47C 406.167,47.6667 408.833,47.6667 411.5,47C 410.167,46 410.167,45 411.5,44C 419.835,43.4582 428.169,42.9582 436.5,42.5 Z"/></g>
<g><path style="opacity:1" fill="#37cf83" d="M 509.5,42.5 C 509.682,44.5914 509.348,46.5914 508.5,48.5C 507.675,49.3857 506.675,49.719 505.5,49.5C 495.326,48.8334 484.992,48.1667 474.5,47.5C 473.807,46.4822 473.141,45.4822 472.5,44.5C 472.918,43.7784 473.584,43.2784 474.5,43C 486.162,42.5001 497.829,42.3335 509.5,42.5 Z"/></g>
<g><path style="opacity:1" fill="#45c08d" d="M 281.5,49.5 C 270.679,50.4946 259.679,50.8279 248.5,50.5C 248.334,59.8393 248.5,69.1726 249,78.5C 255.076,79.4764 261.242,79.8097 267.5,79.5C 262.684,80.3261 257.684,80.8261 252.5,81C 251.484,81.5194 250.818,82.3527 250.5,83.5C 251.195,84.4764 251.862,85.4764 252.5,86.5C 250.473,86.6621 248.473,86.4955 246.5,86C 245.944,85.6174 245.611,85.1174 245.5,84.5C 246.5,84.5 247.5,84.5 248.5,84.5C 248.719,83.325 248.386,82.325 247.5,81.5C 246.391,82.5896 245.391,82.5896 244.5,81.5C 245.851,77.4545 246.517,73.2879 246.5,69C 245.739,63.7602 244.739,58.5935 243.5,53.5C 244.5,53.5 245.5,53.5 246.5,53.5C 246.286,51.8561 246.62,50.3561 247.5,49C 258.855,48.2825 270.189,48.4492 281.5,49.5 Z"/></g>
<g><path style="opacity:1" fill="#88d4be" d="M 509.5,42.5 C 510.473,44.9479 510.806,47.6146 510.5,50.5C 499.5,50.5 488.5,50.5 477.5,50.5C 486.652,49.5064 495.985,49.1731 505.5,49.5C 506.675,49.719 507.675,49.3857 508.5,48.5C 509.348,46.5914 509.682,44.5914 509.5,42.5 Z"/></g>
<g><path style="opacity:1" fill="#f7fbf8" d="M 682.5,64.5 C 681.5,64.5 680.5,64.5 679.5,64.5C 679.5,59.8333 679.5,55.1667 679.5,50.5C 688.859,50.0583 698.525,50.0583 708.5,50.5C 708.957,54.5839 708.29,58.4172 706.5,62C 704.913,62.8624 703.246,63.5291 701.5,64C 695.175,64.4995 688.842,64.6662 682.5,64.5 Z"/></g>
<g><path style="opacity:1" fill="#2ecd82" d="M 278.5,42.5 C 279.5,42.5 280.5,42.5 281.5,42.5C 281.5,44.8333 281.5,47.1667 281.5,49.5C 270.189,48.4492 258.855,48.2825 247.5,49C 246.62,50.3561 246.286,51.8561 246.5,53.5C 245.5,53.5 244.5,53.5 243.5,53.5C 244.739,58.5935 245.739,63.7602 246.5,69C 246.517,73.2879 245.851,77.4545 244.5,81.5C 245.391,82.5896 246.391,82.5896 247.5,81.5C 248.386,82.325 248.719,83.325 248.5,84.5C 247.5,84.5 246.5,84.5 245.5,84.5C 243.738,83.7377 242.738,82.4044 242.5,80.5C 242.334,70.4944 242.5,60.4944 243,50.5C 243.333,50.8333 243.667,51.1667 244,51.5C 244.167,50.6667 244.333,49.8333 244.5,49C 243.013,45.1569 243.846,44.6569 247,47.5C 247.979,45.6797 249.479,44.513 251.5,44C 260.676,43.8297 269.676,43.3297 278.5,42.5 Z"/></g>
<g><path style="opacity:1" fill="#45ce88" d="M 295.5,41.5 C 301.374,45.8288 306.374,51.1621 310.5,57.5C 310.611,58.1174 310.944,58.6174 311.5,59C 310.026,60.3161 308.359,61.3161 306.5,62C 307.774,62.9772 307.774,63.8106 306.5,64.5C 300.189,57.1862 293.856,49.8529 287.5,42.5C 290.086,41.52 292.753,41.1866 295.5,41.5 Z"/></g>
<g><path style="opacity:1" fill="#44cd8f" d="M 296.5,87.5 C 293.833,87.5 291.167,87.5 288.5,87.5C 288.954,84.8602 290.121,82.5268 292,80.5C 296.671,74.9972 301.504,69.6638 306.5,64.5C 307.774,63.8106 307.774,62.9772 306.5,62C 308.359,61.3161 310.026,60.3161 311.5,59C 310.944,58.6174 310.611,58.1174 310.5,57.5C 312.716,56.7974 314.549,55.4641 316,53.5C 319.167,49.6667 322.333,45.8333 325.5,42C 328.882,41.1764 332.216,41.343 335.5,42.5C 329.878,50.1239 323.878,57.4572 317.5,64.5C 323.122,72.1239 329.122,79.4572 335.5,86.5C 332.216,87.657 328.882,87.8236 325.5,87C 320.99,81.6582 316.323,76.4916 311.5,71.5C 306.947,77.2889 301.947,82.6222 296.5,87.5 Z"/></g>
<g><path style="opacity:1" fill="#40c486" d="M 553.5,42.5 C 545.657,43.1666 537.657,43.8333 529.5,44.5C 527.955,46.4396 525.955,47.6062 523.5,48C 534.905,46.8722 546.238,47.3722 557.5,49.5C 557.773,47.549 557.107,46.049 555.5,45C 556.756,44.5831 557.423,43.7498 557.5,42.5C 558.586,42.62 559.253,43.2867 559.5,44.5C 558.844,46.4534 558.511,48.4534 558.5,50.5C 547.5,50.5 536.5,50.5 525.5,50.5C 525.5,59.8333 525.5,69.1667 525.5,78.5C 532.648,79.4916 539.981,79.825 547.5,79.5C 544.437,80.2014 541.27,80.868 538,81.5C 533.847,80.9279 529.68,80.5946 525.5,80.5C 523.192,80.9655 521.858,82.2988 521.5,84.5C 518.964,81.437 517.797,77.7704 518,73.5C 517.5,63.172 517.334,52.8387 517.5,42.5C 529.5,42.5 541.5,42.5 553.5,42.5 Z"/></g>
<g><path style="opacity:1" fill="#35d284" d="M 553.5,42.5 C 554.833,42.5 556.167,42.5 557.5,42.5C 557.423,43.7498 556.756,44.5831 555.5,45C 557.107,46.049 557.773,47.549 557.5,49.5C 546.238,47.3722 534.905,46.8722 523.5,48C 525.955,47.6062 527.955,46.4396 529.5,44.5C 537.657,43.8333 545.657,43.1666 553.5,42.5 Z"/></g>
<g><path style="opacity:1" fill="#49c78c" d="M 224.5,42.5 C 224.5,53.1667 224.5,63.8333 224.5,74.5C 222.549,74.7733 221.049,74.1066 220,72.5C 219.333,75.1667 218.667,75.1667 218,72.5C 217.577,73.9561 216.744,74.4561 215.5,74C 212.462,72.1502 210.462,69.6502 209.5,66.5C 208.325,66.719 207.325,66.3857 206.5,65.5C 207.435,61.8066 206.768,61.8066 204.5,65.5C 201.5,62.8333 198.5,60.1667 195.5,57.5C 195.44,56.9569 195.107,56.6236 194.5,56.5C 193.534,58.396 193.201,60.396 193.5,62.5C 192.678,60.6115 191.845,58.6115 191,56.5C 190.56,63.9132 189.56,71.2465 188,78.5C 187.667,67.8333 187.333,57.1667 187,46.5C 186.5,59.8292 186.333,73.1625 186.5,86.5C 185.504,72.6766 185.171,58.6766 185.5,44.5C 185.5,44.1667 185.5,43.8333 185.5,43.5C 186.627,42.8783 187.627,42.045 188.5,41C 189.5,40.3333 190.5,40.3333 191.5,41C 201.623,51.9583 211.957,62.7917 222.5,73.5C 223.167,63.0078 223.833,52.6745 224.5,42.5 Z"/></g>
<g><path style="opacity:1" fill="#3ec897" d="M 396.5,50.5 C 396.343,51.8734 396.51,53.2068 397,54.5C 399.761,55.4992 401.094,57.4992 401,60.5C 402.349,63.0704 403.516,63.0704 404.5,60.5C 413.173,60.3336 421.84,60.5002 430.5,61C 432.879,61.7162 434.879,62.8828 436.5,64.5C 433.979,65.7504 431.646,65.4171 429.5,63.5C 429.916,65.7525 431.249,67.2525 433.5,68C 432.748,68.6708 432.414,69.5041 432.5,70.5C 431.711,70.2172 431.044,69.7172 430.5,69C 420.784,68.8594 411.117,68.1927 401.5,67C 395.859,62.575 394.193,57.075 396.5,50.5 Z"/></g>
<g><path style="opacity:1" fill="#47c689" d="M 472.5,44.5 C 473.141,45.4822 473.807,46.4822 474.5,47.5C 484.992,48.1667 495.326,48.8334 505.5,49.5C 495.985,49.1731 486.652,49.5064 477.5,50.5C 476.506,59.6517 476.173,68.985 476.5,78.5C 486.833,78.5 497.167,78.5 507.5,78.5C 507.082,79.2216 506.416,79.7216 505.5,80C 499.15,81.1046 492.817,81.2713 486.5,80.5C 485.167,80.6667 483.833,80.8333 482.5,81C 483.696,81.6543 483.696,82.1543 482.5,82.5C 479.448,81.6893 476.615,81.6893 474,82.5C 475.047,78.9195 475.547,75.0862 475.5,71C 475.138,64.1567 474.638,57.3234 474,50.5C 473.749,52.433 473.249,54.2663 472.5,56C 472.833,57.6667 473.167,59.3333 473.5,61C 473,61.5 472.5,62 472,62.5C 471.821,65.5535 471.321,68.5535 470.5,71.5C 469.817,71.8627 469.15,72.1961 468.5,72.5C 468.334,64.8261 468.5,57.1594 469,49.5C 469.223,47.1192 470.39,45.4525 472.5,44.5 Z"/></g>
<g><path style="opacity:1" fill="#5ac998" d="M 708.5,42.5 C 696.167,42.5 683.833,42.5 671.5,42.5C 671.17,49.5316 671.503,56.5316 672.5,63.5C 673.167,60.5 673.833,57.5 674.5,54.5C 675.624,59.7208 676.458,59.7208 677,54.5C 677.181,57.6946 677.681,60.6946 678.5,63.5C 678.5,67.8333 678.5,72.1667 678.5,76.5C 677.293,73.3498 676.293,70.0165 675.5,66.5C 674.252,67.0402 673.085,67.7069 672,68.5C 671.501,74.4908 671.334,80.4908 671.5,86.5C 670.504,71.676 670.171,56.676 670.5,41.5C 683.344,41.1713 696.011,41.5046 708.5,42.5 Z"/></g>
<g><path style="opacity:1" fill="#fbfafb" d="M 29.5,60.5 C 35.8918,60.2487 42.2252,60.582 48.5,61.5C 58.6769,66.4173 68.3436,72.0839 77.5,78.5C 69.4256,90.8652 58.0922,95.5318 43.5,92.5C 29.5161,87.5683 22.8494,77.9016 23.5,63.5C 25.8185,63.0075 27.8185,62.0075 29.5,60.5 Z"/></g>
<g><path style="opacity:1" fill="#dc487a" d="M 44.5,31.5 C 50.0566,30.1894 55.7233,30.356 61.5,32C 71.4798,36.6555 81.1464,41.8222 90.5,47.5C 90.5412,49.7453 91.3745,50.4119 93,49.5C 94.8148,50.2444 96.6481,50.9111 98.5,51.5C 108.458,57.6054 118.791,63.1054 129.5,68C 135.5,68.6667 141.5,68.6667 147.5,68C 149.158,66.3375 151.158,65.5041 153.5,65.5C 151.91,44.5812 140.576,34.5812 119.5,35.5C 116.848,35.4095 114.515,36.0762 112.5,37.5C 106.599,40.0677 101.933,44.0677 98.5,49.5C 97.4017,48.3991 97.235,47.0657 98,45.5C 99.9473,43.9366 101.114,41.9366 101.5,39.5C 116.649,27.7258 131.983,27.5592 147.5,39C 149.364,41.6877 151.364,44.1877 153.5,46.5C 158.185,55.6665 159.518,65.3331 157.5,75.5C 154.885,78.6867 152.552,82.02 150.5,85.5C 150.92,83.9064 151.586,82.4064 152.5,81C 151.824,79.3167 150.824,79.1501 149.5,80.5C 151.336,77.8174 152.336,74.8174 152.5,71.5C 147.547,72.624 142.547,73.624 137.5,74.5C 133.46,73.8586 129.46,73.0253 125.5,72C 105.874,61.52 86.5403,50.52 67.5,39C 61.1442,36.0735 54.4776,34.9068 47.5,35.5C 50.3054,34.6805 53.3054,34.1805 56.5,34C 56.0426,33.586 55.7093,33.086 55.5,32.5C 51.8927,31.5108 48.226,31.1774 44.5,31.5 Z"/></g>
<g><path style="opacity:1" fill="#d44e88" d="M 101.5,39.5 C 101.114,41.9366 99.9473,43.9366 98,45.5C 97.235,47.0657 97.4017,48.3991 98.5,49.5C 98.5,50.1667 98.5,50.8333 98.5,51.5C 96.6481,50.9111 94.8148,50.2444 93,49.5C 91.3745,50.4119 90.5412,49.7453 90.5,47.5C 91.7382,48.4124 93.0715,48.5791 94.5,48C 96.6976,44.9772 99.031,42.1438 101.5,39.5 Z"/></g>
<g><path style="opacity:1" fill="#fbfafb" d="M 119.5,35.5 C 140.576,34.5812 151.91,44.5812 153.5,65.5C 151.158,65.5041 149.158,66.3375 147.5,68C 141.5,68.6667 135.5,68.6667 129.5,68C 118.791,63.1054 108.458,57.6054 98.5,51.5C 98.5,50.8333 98.5,50.1667 98.5,49.5C 101.933,44.0677 106.599,40.0677 112.5,37.5C 115.152,37.5905 117.485,36.9238 119.5,35.5 Z"/></g>
<g><path style="opacity:1" fill="#edabc4" d="M 119.5,35.5 C 117.485,36.9238 115.152,37.5905 112.5,37.5C 114.515,36.0762 116.848,35.4095 119.5,35.5 Z"/></g>
<g><path style="opacity:1" fill="#f5f2f5" d="M 185.5,43.5 C 185.5,43.8333 185.5,44.1667 185.5,44.5C 183.252,46.6544 181.752,49.321 181,52.5C 180.808,50.4233 180.308,48.4233 179.5,46.5C 177.077,47.7118 176.077,49.7118 176.5,52.5C 177.822,52.33 178.989,52.6634 180,53.5C 180.333,56.5 180.667,59.5 181,62.5C 181.333,60.1667 181.667,57.8333 182,55.5C 182.333,55.8333 182.667,56.1667 183,56.5C 182.591,63.5253 182.424,70.5253 182.5,77.5C 178.84,74.0092 175.006,70.6758 171,67.5C 168.2,68.4426 165.366,68.2759 162.5,67C 163.711,66.1072 163.711,65.2739 162.5,64.5C 161.097,67.8688 160.43,71.2022 160.5,74.5C 162.833,75.5 164.5,77.1667 165.5,79.5C 165.167,79.8333 164.833,80.1667 164.5,80.5C 162.55,78.2947 160.216,76.6281 157.5,75.5C 159.518,65.3331 158.185,55.6665 153.5,46.5C 156.454,45.5721 159.454,44.7388 162.5,44C 165.226,41.7042 168.226,39.8709 171.5,38.5C 172.5,39.1667 173.5,39.8333 174.5,40.5C 175.072,38.9222 175.406,37.4222 175.5,36C 179.443,33.0416 183.61,30.5416 188,28.5C 188.833,28.8333 189.667,29.1667 190.5,29.5C 192.721,33.4493 195.054,37.2826 197.5,41C 197.167,41.1667 196.833,41.3333 196.5,41.5C 192.995,39.338 190.662,36.338 189.5,32.5C 187.436,32.687 185.436,33.187 183.5,34C 184.552,35.7165 183.886,36.7165 181.5,37C 182.328,37.9147 183.328,38.5814 184.5,39C 182.74,39.9653 182.406,41.132 183.5,42.5C 185.005,39.8694 185.671,40.2027 185.5,43.5 Z"/></g>
<g><path style="opacity:1" fill="#3fc986" d="M 605.5,63.5 C 606.29,64.6085 606.79,65.9419 607,67.5C 607.192,65.4233 607.692,63.4233 608.5,61.5C 609.321,64.4465 609.821,67.4465 610,70.5C 610.195,65.5821 610.695,60.7488 611.5,56C 610.833,52.6667 610.167,49.3333 609.5,46C 610.823,45.1841 611.489,44.0174 611.5,42.5C 612.661,56.9942 612.828,71.6609 612,86.5C 611.612,87.428 610.945,88.0946 610,88.5C 608.177,87.3488 606.344,86.1821 604.5,85C 595.414,75.2835 586.081,65.7835 576.5,56.5C 576.44,55.9569 576.107,55.6236 575.5,55.5C 574.511,59.1073 574.177,62.774 574.5,66.5C 573.766,65.1225 573.099,63.6225 572.5,62C 573.833,60.1598 573.666,59.6598 572,60.5C 571.917,69.4126 570.751,78.0792 568.5,86.5C 570.5,86.5 572.5,86.5 574.5,86.5C 572.393,87.4682 570.059,87.8016 567.5,87.5C 567.5,72.1667 567.5,56.8333 567.5,41.5C 569.527,41.3379 571.527,41.5045 573.5,42C 584.042,52.3743 594.375,62.8743 604.5,73.5C 605.487,70.2317 605.82,66.8984 605.5,63.5 Z"/></g>
<g><path style="opacity:1" fill="#31cb7d" d="M 611.5,42.5 C 611.489,44.0174 610.823,45.1841 609.5,46C 610.167,49.3333 610.833,52.6667 611.5,56C 610.695,60.7488 610.195,65.5821 610,70.5C 609.821,67.4465 609.321,64.4465 608.5,61.5C 607.692,63.4233 607.192,65.4233 607,67.5C 606.79,65.9419 606.29,64.6085 605.5,63.5C 605.5,56.5 605.5,49.5 605.5,42.5C 607.5,42.5 609.5,42.5 611.5,42.5 Z"/></g>
<g><path style="opacity:1" fill="#53c59b" d="M 529.5,67.5 C 537.5,67.5 545.5,67.5 553.5,67.5C 553.146,65.4588 553.146,63.6255 553.5,62C 547.757,61.5928 542.09,62.0928 536.5,63.5C 534.591,62.6518 532.591,62.3184 530.5,62.5C 530.737,63.791 530.404,64.791 529.5,65.5C 529.5,64.1667 529.5,62.8333 529.5,61.5C 537.847,61.2206 546.18,61.0539 554.5,61C 555.435,63.3806 555.768,65.8806 555.5,68.5C 546.651,68.8264 537.984,68.493 529.5,67.5 Z"/></g>
<g><path style="opacity:1" fill="#2ec86e" d="M 644.5,86.5 C 642.661,87.7525 640.828,87.7525 639,86.5C 638.503,84.1902 638.337,81.8568 638.5,79.5C 639.494,69.6806 639.827,59.6806 639.5,49.5C 641.167,49.5 642.833,49.5 644.5,49.5C 644.5,61.8333 644.5,74.1667 644.5,86.5 Z"/></g>
<g><path style="opacity:1" fill="#3ac38e" d="M 747.5,61.5 C 752.5,61.5 757.5,61.5 762.5,61.5C 762.5,63.8333 762.5,66.1667 762.5,68.5C 754.5,68.5 746.5,68.5 738.5,68.5C 736.111,66.6306 736.111,64.7972 738.5,63C 741.695,62.8195 744.695,62.3195 747.5,61.5 Z"/></g>
<g><path style="opacity:1" fill="#23cd8a" d="M 429.5,63.5 C 421.167,66.4558 412.5,67.2892 403.5,66C 407.862,65.2532 412.029,64.0865 416,62.5C 420.542,62.6148 425.042,62.9481 429.5,63.5 Z"/></g>
<g><path style="opacity:1" fill="#27ca7c" d="M 267.5,61.5 C 271.167,61.5 274.833,61.5 278.5,61.5C 278.5,63.5 278.5,65.5 278.5,67.5C 272.523,66.8587 266.523,66.3587 260.5,66C 258.43,63.8728 256.597,64.0394 255,66.5C 254.5,66.3333 254,66.1667 253.5,66C 254.337,64.9887 254.67,63.8221 254.5,62.5C 258.986,63.3793 263.319,63.0459 267.5,61.5 Z"/></g>
<g><path style="opacity:1" fill="#d1f0df" d="M 679.5,50.5 C 679.5,55.1667 679.5,59.8333 679.5,64.5C 680.5,64.5 681.5,64.5 682.5,64.5C 681.89,65.391 681.557,66.391 681.5,67.5C 680.167,74.1667 678.833,80.8333 677.5,87.5C 678.423,83.9359 678.756,80.2693 678.5,76.5C 678.5,72.1667 678.5,67.8333 678.5,63.5C 678.182,58.9677 678.515,54.6344 679.5,50.5 Z"/></g>
<g><path style="opacity:1" fill="#2bcd78" d="M 756.5,62.5 C 759.91,62.3838 761.244,64.0504 760.5,67.5C 754.227,67.3716 748.227,66.2049 742.5,64C 747.351,63.8255 752.018,63.3255 756.5,62.5 Z"/></g>
<g><path style="opacity:1" fill="#3bc6a1" d="M 267.5,61.5 C 263.319,63.0459 258.986,63.3793 254.5,62.5C 254.67,63.8221 254.337,64.9887 253.5,66C 254,66.1667 254.5,66.3333 255,66.5C 256.597,64.0394 258.43,63.8728 260.5,66C 266.523,66.3587 272.523,66.8587 278.5,67.5C 270.016,68.493 261.349,68.8264 252.5,68.5C 252.5,66.1667 252.5,63.8333 252.5,61.5C 257.5,61.5 262.5,61.5 267.5,61.5 Z"/></g>
<g><path style="opacity:1" fill="#24c77d" d="M 529.5,67.5 C 529.5,66.8333 529.5,66.1667 529.5,65.5C 530.404,64.791 530.737,63.791 530.5,62.5C 532.591,62.3184 534.591,62.6518 536.5,63.5C 542.09,62.0928 547.757,61.5928 553.5,62C 553.146,63.6255 553.146,65.4588 553.5,67.5C 545.5,67.5 537.5,67.5 529.5,67.5 Z"/></g>
<g><path style="opacity:1" fill="#33bfa3" d="M 747.5,61.5 C 744.695,62.3195 741.695,62.8195 738.5,63C 736.111,64.7972 736.111,66.6306 738.5,68.5C 737.5,68.5 736.5,68.5 735.5,68.5C 735.5,66.1667 735.5,63.8333 735.5,61.5C 739.5,61.5 743.5,61.5 747.5,61.5 Z"/></g>
<g><path style="opacity:1" fill="#3fca8b" d="M 708.5,42.5 C 711.561,42.4443 713.728,43.7776 715,46.5C 715.83,52.1959 715.663,57.8625 714.5,63.5C 712.833,65.5 711.167,67.5 709.5,69.5C 706.379,70.2261 703.713,71.7261 701.5,74C 705.217,77.3847 709.217,80.3847 713.5,83C 715.037,84.1096 715.703,85.6096 715.5,87.5C 712.15,87.665 708.817,87.4983 705.5,87C 700.313,82.9029 695.313,78.5695 690.5,74C 687.899,73.0797 685.232,72.413 682.5,72C 681.62,70.6439 681.286,69.1439 681.5,67.5C 681.557,66.391 681.89,65.391 682.5,64.5C 688.842,64.6662 695.175,64.4995 701.5,64C 703.246,63.5291 704.913,62.8624 706.5,62C 708.29,58.4172 708.957,54.5839 708.5,50.5C 698.525,50.0583 688.859,50.0583 679.5,50.5C 678.515,54.6344 678.182,58.9677 678.5,63.5C 677.681,60.6946 677.181,57.6946 677,54.5C 676.458,59.7208 675.624,59.7208 674.5,54.5C 673.833,57.5 673.167,60.5 672.5,63.5C 671.503,56.5316 671.17,49.5316 671.5,42.5C 683.833,42.5 696.167,42.5 708.5,42.5 Z"/></g>
<g><path style="opacity:1" fill="#3eca85" d="M 386.5,42.5 C 386.5,57.1667 386.5,71.8333 386.5,86.5C 377.833,86.5 369.167,86.5 360.5,86.5C 350.495,85.6645 344.328,80.3312 342,70.5C 341.5,60.8391 341.334,51.1724 341.5,41.5C 343.92,41.2924 346.253,41.6258 348.5,42.5C 349.332,51.1475 349.832,59.8142 350,68.5C 350.964,72.4685 353.131,75.6351 356.5,78C 364.159,78.4997 371.826,78.6664 379.5,78.5C 379.5,66.1667 379.5,53.8333 379.5,41.5C 382.059,41.1984 384.393,41.5318 386.5,42.5 Z"/></g>
<g><path style="opacity:1" fill="#da497a" d="M 142.5,88.5 C 141.375,90.1288 140.041,91.6288 138.5,93C 139.819,93.195 141.153,93.0283 142.5,92.5C 139.28,94.9786 135.613,96.812 131.5,98C 126.833,98.6667 122.167,98.6667 117.5,98C 105.56,92.6965 93.893,86.8632 82.5,80.5C 75.386,91.6837 65.0527,97.6837 51.5,98.5C 48.4733,98.7135 45.8066,98.0468 43.5,96.5C 46.5184,96.6646 49.5184,96.498 52.5,96C 49.964,95.6608 47.464,95.1608 45,94.5C 43.9701,94.1639 43.4701,93.4972 43.5,92.5C 58.0922,95.5318 69.4256,90.8652 77.5,78.5C 68.3436,72.0839 58.6769,66.4173 48.5,61.5C 48.3893,60.8826 48.056,60.3826 47.5,60C 41.3188,59.1808 35.3188,59.3475 29.5,60.5C 27.8185,62.0075 25.8185,63.0075 23.5,63.5C 22.2329,60.728 22.2329,58.0613 23.5,55.5C 23.281,56.675 23.6143,57.675 24.5,58.5C 33.4012,53.4298 42.4012,53.2631 51.5,58C 70.4012,67.8992 89.0678,78.2325 107.5,89C 119.297,95.0518 130.964,94.8851 142.5,88.5 Z"/></g>
<g><path style="opacity:1" fill="#d978a0" d="M 29.5,60.5 C 35.3188,59.3475 41.3188,59.1808 47.5,60C 48.056,60.3826 48.3893,60.8826 48.5,61.5C 42.2252,60.582 35.8918,60.2487 29.5,60.5 Z"/></g>
<g><path style="opacity:1" fill="#3fc77e" d="M 678.5,76.5 C 678.756,80.2693 678.423,83.9359 677.5,87.5C 675.265,87.7947 673.265,87.4614 671.5,86.5C 671.334,80.4908 671.501,74.4908 672,68.5C 673.085,67.7069 674.252,67.0402 675.5,66.5C 676.293,70.0165 677.293,73.3498 678.5,76.5 Z"/></g>
<g><path style="opacity:1" fill="#afe0cd" d="M 195.5,57.5 C 195.158,67.7083 194.158,77.7083 192.5,87.5C 193.469,79.2517 193.802,70.9183 193.5,62.5C 193.201,60.396 193.534,58.396 194.5,56.5C 195.107,56.6236 195.44,56.9569 195.5,57.5 Z"/></g>
<g><path style="opacity:1" fill="#73d8ab" d="M 576.5,56.5 C 575.833,66.5 575.167,76.5 574.5,86.5C 574.5,79.8333 574.5,73.1667 574.5,66.5C 574.177,62.774 574.511,59.1073 575.5,55.5C 576.107,55.6236 576.44,55.9569 576.5,56.5 Z"/></g>
<g><path style="opacity:1" fill="#44c685" d="M 224.5,42.5 C 226.833,42.5 229.167,42.5 231.5,42.5C 231.824,57.4116 231.491,72.245 230.5,87C 227.449,87.8567 224.783,87.19 222.5,85C 216.662,78.3296 210.662,71.8296 204.5,65.5C 206.768,61.8066 207.435,61.8066 206.5,65.5C 207.325,66.3857 208.325,66.719 209.5,66.5C 210.462,69.6502 212.462,72.1502 215.5,74C 216.744,74.4561 217.577,73.9561 218,72.5C 218.667,75.1667 219.333,75.1667 220,72.5C 221.049,74.1066 222.549,74.7733 224.5,74.5C 224.5,63.8333 224.5,53.1667 224.5,42.5 Z"/></g>
<g><path style="opacity:1" fill="#3ec589" d="M 755.5,42.5 C 747.99,43.1666 740.323,43.8333 732.5,44.5C 732.291,45.086 731.957,45.586 731.5,46C 733.991,46.6259 733.991,47.4593 731.5,48.5C 742.146,49.4987 752.813,49.832 763.5,49.5C 753.347,50.4942 743.014,50.8276 732.5,50.5C 732.334,59.8393 732.5,69.1726 733,78.5C 740.413,79.4808 747.913,79.8142 755.5,79.5C 755.217,80.2891 754.717,80.9558 754,81.5C 750.645,81.8166 747.478,81.4832 744.5,80.5C 742.889,81.3202 742.222,82.6536 742.5,84.5C 744.877,84.7845 747.044,84.7845 749,84.5C 749.717,85.0442 750.217,85.7109 750.5,86.5C 743.492,86.6663 736.492,86.4996 729.5,86C 727.383,84.2691 725.883,82.1024 725,79.5C 724.5,67.1712 724.333,54.8378 724.5,42.5C 734.833,42.5 745.167,42.5 755.5,42.5 Z"/></g>
<g><path style="opacity:1" fill="#a1e1bf" d="M 430.5,78.5 C 419.346,79.4948 408.012,79.8281 396.5,79.5C 396.5,81.8333 396.5,84.1667 396.5,86.5C 406.833,86.5 417.167,86.5 427.5,86.5C 417.013,87.4944 406.346,87.8278 395.5,87.5C 395.5,84.5 395.5,81.5 395.5,78.5C 407.167,78.5 418.833,78.5 430.5,78.5 Z"/></g>
<g><path style="opacity:1" fill="#a6dfc4" d="M 525.5,78.5 C 536.833,78.5 548.167,78.5 559.5,78.5C 559.806,81.3854 559.473,84.0521 558.5,86.5C 558.5,84.8333 558.5,83.1667 558.5,81.5C 555.316,79.5864 551.649,78.9197 547.5,79.5C 539.981,79.825 532.648,79.4916 525.5,78.5 Z"/></g>
<g><path style="opacity:1" fill="#2dc86f" d="M 574.5,66.5 C 574.5,73.1667 574.5,79.8333 574.5,86.5C 572.5,86.5 570.5,86.5 568.5,86.5C 570.751,78.0792 571.917,69.4126 572,60.5C 573.666,59.6598 573.833,60.1598 572.5,62C 573.099,63.6225 573.766,65.1225 574.5,66.5 Z"/></g>
<g><path style="opacity:1" fill="#3fc478" d="M 193.5,62.5 C 193.802,70.9183 193.469,79.2517 192.5,87.5C 190.379,87.6747 188.379,87.3414 186.5,86.5C 186.333,73.1625 186.5,59.8292 187,46.5C 187.333,57.1667 187.667,67.8333 188,78.5C 189.56,71.2465 190.56,63.9132 191,56.5C 191.845,58.6115 192.678,60.6115 193.5,62.5 Z"/></g>
<g><path style="opacity:1" fill="#2dd27b" d="M 755.5,79.5 C 758.5,79.5 761.5,79.5 764.5,79.5C 764.5,81.5 764.5,83.5 764.5,85.5C 760.894,85.7892 757.394,85.4558 754,84.5C 753.283,85.0442 752.783,85.7109 752.5,86.5C 751.833,86.5 751.167,86.5 750.5,86.5C 750.217,85.7109 749.717,85.0442 749,84.5C 747.044,84.7845 744.877,84.7845 742.5,84.5C 742.222,82.6536 742.889,81.3202 744.5,80.5C 747.478,81.4832 750.645,81.8166 754,81.5C 754.717,80.9558 755.217,80.2891 755.5,79.5 Z"/></g>
<g><path style="opacity:1" fill="#32d080" d="M 267.5,79.5 C 272.5,79.5 277.5,79.5 282.5,79.5C 282.66,81.1992 282.494,82.8659 282,84.5C 281.583,85.756 280.75,86.4226 279.5,86.5C 278.738,85.0245 278.405,83.6912 278.5,82.5C 277.575,83.6405 276.741,83.6405 276,82.5C 275.3,84.032 274.134,85.032 272.5,85.5C 268.927,85.0233 265.093,84.69 261,84.5C 258.071,84.5248 255.571,85.1914 253.5,86.5C 253.167,86.5 252.833,86.5 252.5,86.5C 251.862,85.4764 251.195,84.4764 250.5,83.5C 250.818,82.3527 251.484,81.5194 252.5,81C 257.684,80.8261 262.684,80.3261 267.5,79.5 Z"/></g>
<g><path style="opacity:1" fill="#36ce89" d="M 429.5,63.5 C 431.646,65.4171 433.979,65.7504 436.5,64.5C 438.173,65.343 439.34,66.6763 440,68.5C 441.65,74.9256 440.15,80.4256 435.5,85C 432.986,86.2525 430.32,86.7525 427.5,86.5C 417.167,86.5 406.833,86.5 396.5,86.5C 396.5,84.1667 396.5,81.8333 396.5,79.5C 408.012,79.8281 419.346,79.4948 430.5,78.5C 432.223,76.22 432.889,73.5533 432.5,70.5C 432.414,69.5041 432.748,68.6708 433.5,68C 431.249,67.2525 429.916,65.7525 429.5,63.5 Z"/></g>
<g><path style="opacity:1" fill="#34cf7b" d="M 507.5,78.5 C 508.167,78.5 508.833,78.5 509.5,78.5C 509.5,81.1667 509.5,83.8333 509.5,86.5C 502.833,86.5 496.167,86.5 489.5,86.5C 487.088,84.838 484.254,83.838 481,83.5C 478.911,83.5978 476.745,84.2645 474.5,85.5C 469.57,82.6343 467.57,78.301 468.5,72.5C 469.15,72.1961 469.817,71.8627 470.5,71.5C 471.321,68.5535 471.821,65.5535 472,62.5C 472.5,62 473,61.5 473.5,61C 473.167,59.3333 472.833,57.6667 472.5,56C 473.249,54.2663 473.749,52.433 474,50.5C 474.638,57.3234 475.138,64.1567 475.5,71C 475.547,75.0862 475.047,78.9195 474,82.5C 476.615,81.6893 479.448,81.6893 482.5,82.5C 483.696,82.1543 483.696,81.6543 482.5,81C 483.833,80.8333 485.167,80.6667 486.5,80.5C 492.817,81.2713 499.15,81.1046 505.5,80C 506.416,79.7216 507.082,79.2216 507.5,78.5 Z"/></g>
<g><path style="opacity:1" fill="#2fd07b" d="M 547.5,79.5 C 551.649,78.9197 555.316,79.5864 558.5,81.5C 557.034,82.347 556.2,83.6803 556,85.5C 555.326,84.4216 554.326,83.7549 553,83.5C 544.525,84.593 536.025,84.7596 527.5,84C 526.407,82.6346 525.074,82.3013 523.5,83C 524.756,83.4169 525.423,84.2502 525.5,85.5C 524.5,85.5 523.5,85.5 522.5,85.5C 521.833,85.5 521.5,85.1667 521.5,84.5C 521.858,82.2988 523.192,80.9655 525.5,80.5C 529.68,80.5946 533.847,80.9279 538,81.5C 541.27,80.868 544.437,80.2014 547.5,79.5 Z"/></g>
<g><path style="opacity:1" fill="#37c58f" d="M 279.5,86.5 C 271.833,86.5 264.167,86.5 256.5,86.5C 255.5,86.5 254.5,86.5 253.5,86.5C 255.571,85.1914 258.071,84.5248 261,84.5C 265.093,84.69 268.927,85.0233 272.5,85.5C 274.134,85.032 275.3,84.032 276,82.5C 276.741,83.6405 277.575,83.6405 278.5,82.5C 278.405,83.6912 278.738,85.0245 279.5,86.5 Z"/></g>
<g><path style="opacity:1" fill="#32cb88" d="M 558.5,81.5 C 558.5,83.1667 558.5,84.8333 558.5,86.5C 547.321,86.8279 536.321,86.4946 525.5,85.5C 525.423,84.2502 524.756,83.4169 523.5,83C 525.074,82.3013 526.407,82.6346 527.5,84C 536.025,84.7596 544.525,84.593 553,83.5C 554.326,83.7549 555.326,84.4216 556,85.5C 556.2,83.6803 557.034,82.347 558.5,81.5 Z"/></g>
<g><path style="opacity:1" fill="#3ac888" d="M 489.5,86.5 C 485.833,86.5 482.167,86.5 478.5,86.5C 476.901,86.7678 475.568,86.4345 474.5,85.5C 476.745,84.2645 478.911,83.5978 481,83.5C 484.254,83.838 487.088,84.838 489.5,86.5 Z"/></g>
<g><path style="opacity:1" fill="#78dcd1" d="M 764.5,85.5 C 760.702,86.4834 756.702,86.8168 752.5,86.5C 752.783,85.7109 753.283,85.0442 754,84.5C 757.394,85.4558 760.894,85.7892 764.5,85.5 Z"/></g>
<g><path style="opacity:1" fill="#e4416a" d="M 150.5,85.5 C 148.457,88.5431 145.79,90.8764 142.5,92.5C 141.153,93.0283 139.819,93.195 138.5,93C 140.041,91.6288 141.375,90.1288 142.5,88.5C 144.833,85.8333 147.167,83.1667 149.5,80.5C 150.824,79.1501 151.824,79.3167 152.5,81C 151.586,82.4064 150.92,83.9064 150.5,85.5 Z"/></g>
<g><path style="opacity:1" fill="#abdebc" d="M 386.5,42.5 C 387.496,57.324 387.829,72.324 387.5,87.5C 378.318,87.8266 369.318,87.4933 360.5,86.5C 369.167,86.5 377.833,86.5 386.5,86.5C 386.5,71.8333 386.5,57.1667 386.5,42.5 Z"/></g>
<g><path style="opacity:1" fill="#afe1c2" d="M 509.5,78.5 C 510.477,81.2869 510.81,84.2869 510.5,87.5C 499.654,87.8278 488.987,87.4944 478.5,86.5C 482.167,86.5 485.833,86.5 489.5,86.5C 496.167,86.5 502.833,86.5 509.5,86.5C 509.5,83.8333 509.5,81.1667 509.5,78.5 Z"/></g>
<g><path style="opacity:1" fill="#a3d9ad" d="M 522.5,85.5 C 523.5,85.5 524.5,85.5 525.5,85.5C 536.321,86.4946 547.321,86.8279 558.5,86.5C 547.007,87.6595 535.341,87.8261 523.5,87C 522.944,86.6174 522.611,86.1174 522.5,85.5 Z"/></g>
<g><path style="opacity:1" fill="#f3f1f2" d="M 102.5,132.5 C 101.167,132.5 99.8333,132.5 98.5,132.5C 97.6884,127.688 95.0217,124.355 90.5,122.5C 89.3192,124.135 89.3192,125.802 90.5,127.5C 89.8333,128.833 89.1667,128.833 88.5,127.5C 87.6171,126.452 86.9504,125.285 86.5,124C 86.6107,122.278 87.1107,122.112 88,123.5C 88.49,122.207 88.6567,120.873 88.5,119.5C 87.5,119.5 86.5,119.5 85.5,119.5C 85.607,117.097 84.607,115.264 82.5,114C 78.1008,113.688 77.1008,112.022 79.5,109C 78.3726,107.943 77.8726,106.777 78,105.5C 78.7175,106.451 79.5509,106.617 80.5,106C 78.1616,104.492 77.1616,102.325 77.5,99.5C 80.1142,99.2771 81.7809,100.444 82.5,103C 84.433,103.251 86.2663,103.751 88,104.5C 89.6859,101.978 91.0192,102.311 92,105.5C 92.5079,103.096 93.6745,102.429 95.5,103.5C 96.427,101.054 98.0937,100.221 100.5,101C 99.0403,101.811 98.707,102.645 99.5,103.5C 101.957,101.411 104.457,99.4112 107,97.5C 108.682,98.8646 108.849,100.365 107.5,102C 112.843,107.84 117.176,114.34 120.5,121.5C 120.154,122.696 119.654,122.696 119,121.5C 117.135,116.804 114.302,112.804 110.5,109.5C 109.201,110.09 108.368,111.09 108,112.5C 107.331,109.972 106.498,109.972 105.5,112.5C 107.435,117.004 108.268,121.67 108,126.5C 106.059,122.751 104.726,118.751 104,114.5C 102.561,116.275 101.561,118.275 101,120.5C 100.751,119.376 100.251,118.376 99.5,117.5C 97.5095,118.427 95.5095,118.594 93.5,118C 96.2974,122.963 99.2974,127.796 102.5,132.5 Z"/></g>
</svg>
